<svg id="svg" version="1.1" width="515" height="85" xmlns="http://www.w3.org/2000/svg" xmlns:xlink="http://www.w3.org/1999/xlink" style="display: block;"><g id="svgg"><path id="path0" d="M3.508 1.209 C 3.255 1.919,2.924 4.907,2.774 7.849 L 2.500 13.198 11.500 13.349 L 20.500 13.500 20.500 7.000 L 20.500 0.500 12.234 0.209 C 6.175 -0.004,3.846 0.263,3.508 1.209 M36.569 26.750 C 36.210 38.712,35.583 52.149,35.175 56.610 L 34.433 64.719 37.466 63.962 C 39.135 63.545,43.313 62.616,46.750 61.896 L 53.000 60.587 53.235 50.544 C 53.365 45.020,53.464 38.096,53.456 35.158 L 53.441 29.815 55.522 32.426 C 56.667 33.861,59.991 39.641,62.908 45.268 C 69.502 57.988,68.797 57.336,74.619 56.115 C 77.304 55.552,80.850 54.819,82.500 54.485 C 84.150 54.152,88.696 53.215,92.602 52.404 L 99.704 50.929 100.566 38.715 C 101.040 31.997,101.444 22.225,101.464 17.000 L 101.500 7.500 93.349 7.211 L 85.198 6.922 84.590 11.711 C 84.256 14.345,83.767 22.982,83.504 30.904 C 82.945 47.725,83.121 47.208,80.007 41.197 C 78.668 38.614,75.491 33.125,72.946 29.000 C 70.401 24.875,68.134 21.023,67.909 20.441 C 67.684 19.858,65.484 16.146,63.020 12.191 L 58.540 5.000 47.881 5.000 L 37.221 5.000 36.569 26.750 M142.366 9.014 C 126.236 10.751,114.080 25.587,114.015 43.612 C 113.998 48.243,113.418 48.112,124.495 45.968 C 132.871 44.347,133.655 43.754,134.236 38.598 C 135.688 25.713,147.360 18.342,157.947 23.623 C 160.773 25.033,162.325 26.951,167.500 35.431 C 168.780 37.529,185.000 34.559,185.000 32.226 C 185.000 22.836,171.116 10.603,159.150 9.449 C 156.042 9.150,152.375 8.781,151.000 8.629 C 149.625 8.477,145.740 8.650,142.366 9.014 M342.792 19.162 L 342.500 27.462 337.199 28.481 C 334.284 29.041,332.034 29.950,332.199 30.500 C 332.531 31.605,333.502 31.604,339.749 30.497 C 343.793 29.781,343.991 29.860,343.845 32.122 C 343.358 39.636,349.963 56.256,355.644 61.813 C 361.321 67.366,375.000 72.171,375.000 68.611 C 375.000 67.633,374.162 67.000,372.866 67.000 C 361.799 67.000,349.920 54.083,347.575 39.500 C 347.221 37.300,346.672 34.197,346.354 32.604 C 345.842 30.035,346.015 29.771,347.889 30.261 C 349.492 30.680,350.000 30.354,350.000 28.906 C 350.000 27.680,349.301 27.000,348.042 27.000 C 346.294 27.000,346.053 26.179,345.792 19.330 C 345.372 8.293,343.178 8.170,342.792 19.162 M201.677 21.036 C 200.879 31.383,199.384 30.793,216.500 26.885 C 218.700 26.383,224.100 25.304,228.500 24.489 C 232.900 23.674,238.750 22.507,241.500 21.896 C 244.250 21.285,247.949 20.496,249.720 20.142 C 260.675 17.957,245.143 14.180,221.910 13.379 L 202.319 12.704 201.677 21.036 M302.500 15.901 C 283.251 19.539,274.386 26.374,276.490 35.953 C 277.173 39.066,283.544 46.000,285.721 46.000 C 286.424 46.000,287.000 46.369,287.000 46.821 C 287.000 47.836,306.353 47.688,322.695 46.549 C 340.500 45.307,344.374 49.054,336.920 60.307 C 326.253 76.412,298.039 84.491,271.980 78.902 C 263.202 77.020,263.552 79.211,272.397 81.515 C 300.607 88.863,336.184 75.805,342.143 55.917 C 345.667 44.156,339.254 41.807,310.000 44.144 C 293.484 45.463,285.761 44.509,282.200 40.707 C 272.829 30.703,283.629 20.967,307.665 17.751 C 314.316 16.861,319.333 15.000,315.082 15.000 C 314.577 15.000,313.564 14.820,312.832 14.600 C 312.099 14.379,307.450 14.965,302.500 15.901 M492.500 15.155 C 483.031 20.334,487.189 30.036,498.808 29.872 C 508.866 29.731,515.549 36.478,510.171 41.345 C 508.780 42.604,506.366 43.000,500.088 43.000 C 488.873 43.000,489.162 45.368,500.428 45.794 C 507.488 46.061,508.506 45.851,511.598 43.493 C 520.062 37.038,511.760 27.076,497.872 27.022 C 491.453 26.997,489.564 25.586,490.572 21.569 C 491.431 18.148,494.181 16.769,500.150 16.769 C 503.615 16.769,505.000 16.374,505.000 15.385 C 505.000 13.671,495.531 13.497,492.500 15.155 M417.667 15.667 C 416.620 16.713,416.897 27.090,418.086 31.370 C 419.087 34.975,418.960 35.453,416.231 38.370 C 409.234 45.848,408.029 51.582,412.452 56.354 C 417.880 62.211,427.000 58.415,427.000 50.298 L 427.000 46.866 431.250 50.309 C 435.647 53.870,441.120 57.000,442.950 57.000 C 445.439 57.000,443.614 54.926,438.604 52.059 C 431.468 47.977,426.281 42.143,425.488 37.310 C 422.668 20.112,420.161 13.173,417.667 15.667 M1.645 37.750 C 1.278 46.963,0.689 58.274,0.336 62.886 L -0.304 71.273 4.598 70.569 C 19.319 68.454,18.625 69.743,19.299 43.250 L 19.864 21.000 11.088 21.000 L 2.312 21.000 1.645 37.750 M437.000 26.031 C 437.000 28.517,439.512 29.650,441.453 28.039 C 443.459 26.374,442.248 24.000,439.393 24.000 C 437.654 24.000,437.000 24.555,437.000 26.031 M458.446 25.720 C 458.809 26.665,458.784 27.117,458.390 26.723 C 457.076 25.409,454.000 31.994,454.000 36.120 C 454.000 49.612,469.717 53.301,480.285 42.288 C 490.150 32.008,483.469 24.000,465.027 24.000 C 458.591 24.000,457.859 24.191,458.446 25.720 M421.859 32.000 C 421.859 32.945,421.542 32.761,421.000 31.500 C 420.527 30.400,420.141 28.825,420.141 28.000 C 420.141 27.055,420.458 27.239,421.000 28.500 C 421.473 29.600,421.859 31.175,421.859 32.000 M475.599 28.572 C 484.816 31.251,484.236 36.788,474.009 43.750 C 465.331 49.658,453.634 42.464,457.050 33.319 C 459.381 27.077,465.271 25.569,475.599 28.572 M439.784 32.549 C 435.549 36.785,449.862 54.525,455.706 52.283 C 457.997 51.403,457.098 50.352,452.856 48.952 C 447.890 47.314,443.477 41.781,442.494 35.963 C 441.866 32.248,441.078 31.255,439.784 32.549 M152.097 39.383 C 151.224 40.435,151.255 40.879,152.224 41.236 C 154.119 41.933,156.000 41.027,156.000 39.417 C 156.000 37.604,153.591 37.583,152.097 39.383 M423.978 48.227 C 424.004 55.109,421.133 58.195,416.817 55.921 C 411.543 53.143,411.492 47.675,416.687 41.925 L 420.374 37.844 422.165 40.172 C 423.398 41.775,423.962 44.283,423.978 48.227 M251.893 39.440 C 251.377 39.956,232.527 42.511,205.810 45.686 C 199.990 46.377,200.316 45.353,199.456 65.661 L 198.739 82.610 213.120 83.819 C 230.996 85.321,236.841 85.321,242.807 83.819 C 261.741 79.052,267.261 56.918,251.617 48.493 C 247.187 46.108,247.187 46.043,251.550 43.216 C 253.489 41.960,254.807 40.497,254.479 39.966 C 253.850 38.948,252.633 38.700,251.893 39.440 M373.000 49.423 C 373.000 62.366,375.065 66.000,382.420 66.000 C 386.895 66.000,387.561 65.352,390.005 58.618 C 390.935 56.054,391.241 55.889,392.775 57.118 C 396.645 60.219,399.303 61.000,405.986 61.000 C 411.058 61.000,413.000 60.642,413.000 59.706 C 413.000 58.775,411.106 58.412,406.250 58.411 C 395.507 58.410,392.081 55.627,390.353 45.500 C 389.070 37.982,387.460 40.329,387.768 49.265 C 388.102 58.952,386.416 63.000,382.046 63.000 C 376.341 63.000,375.485 60.643,375.965 46.250 C 376.168 40.164,375.949 39.000,374.603 39.000 C 373.235 39.000,373.000 40.527,373.000 49.423 M141.000 43.000 C 141.000 43.550,141.675 44.000,142.500 44.000 C 143.325 44.000,144.000 43.550,144.000 43.000 C 144.000 42.450,143.325 42.000,142.500 42.000 C 141.675 42.000,141.000 42.450,141.000 43.000 M160.516 45.743 C 156.082 48.042,154.449 48.314,145.699 48.212 C 138.464 48.127,135.971 48.413,136.265 49.295 C 137.635 53.404,156.075 51.715,164.750 46.686 C 171.662 42.680,167.998 41.863,160.516 45.743 M183.000 49.052 C 181.625 49.464,178.617 49.845,176.315 49.900 C 170.424 50.041,167.000 51.539,167.000 53.975 C 167.000 55.089,166.646 56.000,166.213 56.000 C 165.780 56.000,165.359 56.890,165.277 57.977 C 164.267 71.374,142.096 71.922,135.550 58.711 C 133.804 55.188,116.000 55.852,116.000 59.440 C 116.000 61.501,121.141 71.000,122.256 71.000 C 122.849 71.000,123.039 71.294,122.679 71.654 C 120.339 73.995,133.890 80.024,146.075 82.063 C 164.931 85.219,181.952 73.980,186.050 55.667 C 187.477 49.291,186.837 47.902,183.000 49.052 M238.773 56.680 C 246.898 62.746,240.803 70.369,227.442 70.851 L 217.709 71.203 218.355 67.976 C 218.710 66.202,219.000 62.275,219.000 59.250 L 219.000 53.749 227.523 54.197 C 234.050 54.539,236.685 55.121,238.773 56.680 M95.000 60.528 C 94.175 60.691,89.450 61.359,84.500 62.012 C 79.550 62.666,74.960 63.358,74.300 63.550 C 73.511 63.779,74.370 66.317,76.800 70.942 L 80.500 77.986 89.142 77.993 C 99.026 78.001,98.307 78.778,99.541 66.750 C 100.279 59.552,100.238 59.495,95.000 60.528 M44.200 67.187 C 43.815 67.565,41.475 68.015,39.000 68.187 C 34.587 68.494,34.494 68.572,34.190 72.250 L 33.879 76.000 42.312 76.000 L 50.744 76.000 51.405 71.866 C 51.769 69.593,51.789 67.456,51.450 67.116 C 50.612 66.279,45.070 66.333,44.200 67.187 M14.000 71.554 C 13.175 71.732,9.912 72.162,6.750 72.510 C -1.674 73.438,-0.262 75.000,9.000 75.000 C 16.333 75.000,17.000 74.833,17.000 73.000 C 17.000 71.900,16.663 71.052,16.250 71.116 C 15.838 71.180,14.825 71.377,14.000 71.554 " stroke="none" fill="#000000" fill-rule="evenodd"></path></g></svg>